<?xml version="1.0" encoding="UTF-8"?>
<svg xmlns="http://www.w3.org/2000/svg" xmlns:xlink="http://www.w3.org/1999/xlink" width="14px" height="30px" viewBox="0 0 14 30" version="1.1">
<g id="surface1">
<path style=" stroke:none;fill-rule:nonzero;fill:rgb(0%,40.784314%,29.019609%);fill-opacity:1;" d="M 9.683594 3.34375 C 8.414062 1.851562 7.324219 0.332031 7.101562 0.015625 C 7.074219 -0.00390625 7.039062 -0.00390625 7.015625 0.015625 C 6.792969 0.332031 5.703125 1.851562 4.433594 3.34375 C -6.457031 17.128906 6.148438 26.429688 6.148438 26.429688 L 6.253906 26.5 C 6.347656 27.933594 6.582031 30 6.582031 30 L 7.523438 30 C 7.523438 30 7.757812 27.945312 7.851562 26.5 L 7.957031 26.417969 C 7.96875 26.417969 20.574219 17.128906 9.683594 3.34375 Z M 7.050781 26.21875 C 7.050781 26.21875 6.488281 25.738281 6.335938 25.496094 L 6.335938 25.472656 L 7.015625 10.464844 C 7.015625 10.417969 7.085938 10.417969 7.085938 10.464844 L 7.769531 25.472656 L 7.769531 25.496094 C 7.617188 25.738281 7.050781 26.21875 7.050781 26.21875 Z M 7.050781 26.21875 "/>
</g>
</svg>
