<svg width="15" height="16" viewBox="0 0 15 16" fill="none" xmlns="http://www.w3.org/2000/svg">
<g clip-path="url(#clip0_9_2)">
<path d="M7.50006 2.66666C6.47409 2.66666 5.59203 2.96203 4.89966 3.59505C4.21227 4.22352 3.76259 5.13843 3.51314 6.2788C3.45869 6.52767 3.57742 6.78276 3.79619 6.88697C4.01496 6.99117 4.27228 6.91519 4.40967 6.70582C4.7263 6.22335 5.04244 5.93344 5.3462 5.78466C5.64038 5.64058 5.95748 5.61138 6.32069 5.71516C6.68723 5.81988 6.97097 6.12659 7.41643 6.64336L7.43082 6.66006C7.76661 7.04964 8.17623 7.5249 8.73649 7.89362C9.31785 8.27623 10.0413 8.53331 11.0001 8.53331C12.026 8.53331 12.9081 8.23793 13.6005 7.60492C14.2878 6.97645 14.7375 6.06154 14.987 4.92117C15.0414 4.6723 14.9227 4.41721 14.7039 4.313C14.4852 4.2088 14.2278 4.28477 14.0904 4.49413C13.7738 4.97662 13.4577 5.26652 13.1539 5.41531C12.8597 5.55939 12.5426 5.58859 12.1794 5.48481C11.8129 5.38009 11.5291 5.07338 11.0837 4.5566L11.0693 4.53989C10.7335 4.15031 10.3239 3.67506 9.76362 3.30635C9.18227 2.92373 8.45883 2.66666 7.50006 2.66666Z" fill="#38BDF8"/>
<path d="M4.00006 7.46664C2.97409 7.46664 2.09203 7.76201 1.39966 8.39504C0.712271 9.02351 0.262592 9.93841 0.0131365 11.0788C-0.0413057 11.3277 0.0774162 11.5827 0.296186 11.6869C0.514956 11.7911 0.772276 11.7152 0.909673 11.5058C1.2263 11.0233 1.54244 10.7334 1.8462 10.5846C2.14038 10.4406 2.45747 10.4114 2.82069 10.5151C3.18723 10.6199 3.47097 10.9266 3.91643 11.4434L3.93082 11.46C4.2666 11.8496 4.67624 12.3249 5.23649 12.6936C5.81785 13.0763 6.54128 13.3333 7.50006 13.3333C8.52602 13.3333 9.40808 13.038 10.1005 12.4049C10.7878 11.7764 11.2375 10.8615 11.487 9.72116C11.5414 9.47228 11.4227 9.21719 11.2039 9.11298C10.9852 9.00878 10.7278 9.08476 10.5904 9.29412C10.2738 9.77661 9.95768 10.0665 9.65391 10.2153C9.35974 10.3594 9.04264 10.3886 8.67942 10.2848C8.31289 10.1801 8.02915 9.87335 7.58369 9.35659L7.56929 9.33988C7.23351 8.9503 6.82388 8.47505 6.26362 8.10632C5.68227 7.72372 4.95883 7.46664 4.00006 7.46664Z" fill="#38BDF8"/>
</g>
<defs>
<clipPath id="clip0_9_2">
<rect width="15" height="16" fill="white"/>
</clipPath>
</defs>
</svg>
