<svg width="38" height="16" viewBox="0 0 38 16" fill="none" xmlns="http://www.w3.org/2000/svg">
<path d="M13.312 13.64C12.944 13.64 12.656 13.524 12.448 13.292C12.24 13.068 12.092 12.784 12.004 12.44C11.916 12.104 11.872 11.764 11.872 11.42C11.872 11.204 11.884 11 11.908 10.808C11.948 10.512 12.012 10.188 12.1 9.836C12.188 9.484 12.292 9.132 12.412 8.78C12.532 8.42 12.652 8.084 12.772 7.772C12.892 7.46 13 7.196 13.096 6.98C13.28 6.54 13.444 6.128 13.588 5.744C13.74 5.352 13.84 5.008 13.888 4.712C13.888 4.696 13.888 4.684 13.888 4.676C13.896 4.66 13.9 4.648 13.9 4.64C13.9 4.552 13.86 4.508 13.78 4.508C13.676 4.508 13.508 4.6 13.276 4.784C13.052 4.968 12.816 5.188 12.568 5.444C12.168 5.844 11.796 6.268 11.452 6.716C11.108 7.156 10.808 7.596 10.552 8.036C9.984 9.012 9.7 9.884 9.7 10.652L9.64 10.712C9.136 10.712 8.884 10.444 8.884 9.908C8.884 9.844 8.888 9.776 8.896 9.704C8.904 9.624 8.916 9.544 8.932 9.464C8.988 9.184 9.076 8.884 9.196 8.564C9.316 8.236 9.416 7.984 9.496 7.808C9.52 7.776 9.544 7.72 9.568 7.64C9.624 7.496 9.692 7.312 9.772 7.088C9.86 6.864 9.944 6.644 10.024 6.428C10.136 6.1 10.26 5.748 10.396 5.372C10.532 4.988 10.652 4.608 10.756 4.232C10.892 3.784 11.008 3.352 11.104 2.936C11.2 2.512 11.248 2.164 11.248 1.892C11.248 1.54 11.176 1.364 11.032 1.364C10.824 1.364 10.592 1.456 10.336 1.64C10.088 1.824 9.84 2.06 9.592 2.348C9.352 2.636 9.136 2.932 8.944 3.236C8.552 3.868 8.22 4.468 7.948 5.036C7.676 5.604 7.436 6.184 7.228 6.776C7.116 7.096 6.98 7.504 6.82 8C6.668 8.496 6.512 8.992 6.352 9.488C6.288 9.712 6.22 9.932 6.148 10.148C6.084 10.356 6.024 10.552 5.968 10.736C5.816 11.184 5.644 11.608 5.452 12.008C5.26 12.416 5.036 12.744 4.78 12.992C4.524 13.24 4.22 13.364 3.868 13.364C3.668 13.364 3.516 13.276 3.412 13.1C3.316 12.924 3.268 12.688 3.268 12.392C3.268 12.224 3.284 12.036 3.316 11.828C3.348 11.628 3.396 11.416 3.46 11.192C3.676 10.456 3.968 9.704 4.336 8.936C4.712 8.16 5.1 7.388 5.5 6.62C5.676 6.276 5.872 5.896 6.088 5.48C6.312 5.064 6.532 4.644 6.748 4.22C6.964 3.796 7.16 3.396 7.336 3.02C7.272 3.116 7.204 3.22 7.132 3.332C7.06 3.444 6.988 3.556 6.916 3.668C6.852 3.772 6.792 3.868 6.736 3.956C6.632 4.132 6.52 4.312 6.4 4.496C6.288 4.68 6.176 4.868 6.064 5.06C5.84 5.436 5.608 5.808 5.368 6.176C5.128 6.536 4.876 6.876 4.612 7.196C4.484 7.348 4.348 7.496 4.204 7.64C4.068 7.776 3.924 7.904 3.772 8.024C3.092 8.536 2.396 8.78 1.684 8.756C1.412 8.74 1.184 8.616 1 8.384C0.824 8.144 0.736 7.88 0.736 7.592C0.736 7.448 0.768 7.3 0.832 7.148C0.92 6.964 1.048 6.768 1.216 6.56C1.384 6.344 1.568 6.144 1.768 5.96C1.976 5.776 2.172 5.636 2.356 5.54C2.372 5.532 2.392 5.528 2.416 5.528C2.48 5.528 2.512 5.556 2.512 5.612C2.512 5.644 2.488 5.68 2.44 5.72C2.344 5.816 2.236 5.964 2.116 6.164C1.996 6.356 1.88 6.564 1.768 6.788C1.656 7.012 1.564 7.224 1.492 7.424C1.46 7.528 1.436 7.628 1.42 7.724C1.404 7.812 1.396 7.896 1.396 7.976C1.396 8.288 1.512 8.444 1.744 8.444C2.04 8.444 2.36 8.328 2.704 8.096C3.056 7.864 3.408 7.564 3.76 7.196C4.12 6.828 4.48 6.412 4.84 5.948C5.024 5.716 5.196 5.488 5.356 5.264C5.524 5.04 5.684 4.816 5.836 4.592C5.972 4.4 6.116 4.196 6.268 3.98C6.42 3.756 6.564 3.54 6.7 3.332C6.836 3.132 6.96 2.948 7.072 2.78C7.192 2.604 7.292 2.46 7.372 2.348C7.428 2.26 7.508 2.156 7.612 2.036C7.716 1.908 7.844 1.844 7.996 1.844C8.148 1.844 8.252 1.896 8.308 2C8.364 2.096 8.392 2.212 8.392 2.348C8.392 2.492 8.372 2.64 8.332 2.792C8.292 2.944 8.252 3.072 8.212 3.176C7.964 3.68 7.716 4.168 7.468 4.64C7.22 5.104 6.968 5.568 6.712 6.032C6.464 6.496 6.212 6.96 5.956 7.424C5.708 7.888 5.468 8.376 5.236 8.888C5.172 9.024 5.08 9.228 4.96 9.5C4.84 9.772 4.712 10.068 4.576 10.388C4.448 10.7 4.332 10.992 4.228 11.264C4.124 11.536 4.056 11.74 4.024 11.876C3.992 12.028 3.968 12.16 3.952 12.272C3.944 12.392 3.94 12.496 3.94 12.584C3.94 12.84 3.992 12.968 4.096 12.968C4.184 12.968 4.3 12.868 4.444 12.668C4.588 12.476 4.736 12.188 4.888 11.804C5.072 11.372 5.22 10.996 5.332 10.676C5.452 10.356 5.564 10.052 5.668 9.764L5.956 8.972C6.076 8.66 6.2 8.332 6.328 7.988C6.456 7.636 6.58 7.296 6.7 6.968C6.828 6.64 6.944 6.348 7.048 6.092C7.304 5.468 7.584 4.852 7.888 4.244C8.2 3.636 8.548 3.06 8.932 2.516C9.644 1.492 10.376 0.98 11.128 0.98C11.48 0.98 11.752 1.076 11.944 1.268C12.144 1.452 12.244 1.708 12.244 2.036C12.244 2.084 12.244 2.136 12.244 2.192C12.244 2.24 12.236 2.292 12.22 2.348C12.148 2.772 12.024 3.26 11.848 3.812C11.68 4.356 11.484 4.912 11.26 5.48C11.036 6.048 10.812 6.58 10.588 7.076C10.884 6.684 11.212 6.288 11.572 5.888C11.932 5.488 12.284 5.132 12.628 4.82C12.98 4.508 13.288 4.28 13.552 4.136C13.736 4.024 13.92 3.968 14.104 3.968C14.256 3.968 14.392 4.004 14.512 4.076C14.632 4.14 14.72 4.236 14.776 4.364C14.816 4.444 14.84 4.528 14.848 4.616C14.864 4.696 14.872 4.78 14.872 4.868C14.872 5.076 14.836 5.296 14.764 5.528C14.692 5.76 14.596 6.004 14.476 6.26C14.444 6.34 14.4 6.436 14.344 6.548C14.296 6.652 14.244 6.764 14.188 6.884C14.044 7.172 13.892 7.484 13.732 7.82C13.58 8.148 13.46 8.448 13.372 8.72C13.34 8.8 13.304 8.9 13.264 9.02C13.224 9.132 13.18 9.26 13.132 9.404C13.036 9.716 12.952 10.04 12.88 10.376C12.816 10.712 12.768 11.044 12.736 11.372C12.728 11.436 12.72 11.5 12.712 11.564C12.712 11.636 12.712 11.704 12.712 11.768C12.712 11.864 12.716 11.956 12.724 12.044C12.74 12.132 12.752 12.22 12.76 12.308C12.864 12.916 13.172 13.22 13.684 13.22C13.956 13.22 14.168 13.156 14.32 13.028H14.332C14.404 12.988 14.468 12.968 14.524 12.968C14.588 12.968 14.62 12.992 14.62 13.04C14.62 13.096 14.572 13.168 14.476 13.256C14.204 13.512 13.816 13.64 13.312 13.64ZM14.6372 12.788C14.3012 12.788 14.0412 12.652 13.8572 12.38C13.6812 12.116 13.5932 11.748 13.5932 11.276C13.5932 11.116 13.6052 10.948 13.6292 10.772C13.6852 10.324 13.8212 9.864 14.0372 9.392C14.2532 8.92 14.5452 8.448 14.9132 7.976C15.1772 7.632 15.4732 7.368 15.8012 7.184C16.1292 6.992 16.4492 6.896 16.7612 6.896C16.9852 6.896 17.1812 6.94 17.3492 7.028C17.5572 7.148 17.6612 7.352 17.6612 7.64C17.6612 7.848 17.5892 8.08 17.4452 8.336C17.3012 8.584 17.0532 8.824 16.7012 9.056C16.2532 9.336 15.8732 9.528 15.5612 9.632C15.2572 9.728 15.0132 9.784 14.8292 9.8C14.7732 9.888 14.7132 10.024 14.6492 10.208C14.5932 10.384 14.5412 10.572 14.4932 10.772C14.4532 10.964 14.4252 11.136 14.4092 11.288C14.4092 11.32 14.4052 11.352 14.3972 11.384C14.3972 11.424 14.3972 11.464 14.3972 11.504C14.3972 12.048 14.5692 12.32 14.9132 12.32C15.0972 12.32 15.3052 12.252 15.5372 12.116C15.7772 11.98 16.0092 11.816 16.2332 11.624C16.4652 11.432 16.6692 11.244 16.8452 11.06C17.0292 10.884 17.1572 10.752 17.2292 10.664L18.1172 9.632L18.3572 9.356C18.3972 9.308 18.4372 9.26 18.4772 9.212C18.5172 9.164 18.5572 9.12 18.5972 9.08C18.6292 9.04 18.6652 9.02 18.7052 9.02C18.7932 9.02 18.8372 9.068 18.8372 9.164C18.8372 9.212 18.8132 9.268 18.7652 9.332C18.6852 9.444 18.5932 9.56 18.4892 9.68C18.3932 9.8 18.3012 9.912 18.2132 10.016L17.8052 10.508C17.6452 10.7 17.4732 10.904 17.2892 11.12C17.1052 11.344 16.9252 11.54 16.7492 11.708C16.0052 12.428 15.3012 12.788 14.6372 12.788ZM15.0212 9.464C15.1812 9.424 15.3692 9.34 15.5852 9.212C15.8092 9.084 16.0212 8.948 16.2212 8.804C16.4292 8.66 16.5892 8.54 16.7012 8.444C16.8692 8.308 16.9972 8.156 17.0852 7.988C17.1732 7.82 17.2172 7.676 17.2172 7.556C17.2172 7.388 17.1492 7.304 17.0132 7.304C16.9492 7.304 16.8812 7.32 16.8092 7.352C16.6172 7.44 16.4092 7.608 16.1852 7.856C15.9612 8.104 15.7452 8.376 15.5372 8.672C15.3372 8.968 15.1652 9.232 15.0212 9.464ZM16.068 15.332C15.82 15.332 15.628 15.264 15.492 15.128C15.348 14.992 15.276 14.812 15.276 14.588C15.276 14.34 15.344 14.104 15.48 13.88C15.608 13.656 15.776 13.444 15.984 13.244C16.184 13.044 16.4 12.868 16.632 12.716C16.856 12.564 17.064 12.436 17.256 12.332C17.448 12.22 17.652 12.116 17.868 12.02C18.076 11.924 18.292 11.832 18.516 11.744C18.732 11.656 18.952 11.56 19.176 11.456C19.4 11.36 19.624 11.256 19.848 11.144C19.904 10.984 19.948 10.832 19.98 10.688C20.012 10.536 20.028 10.404 20.028 10.292C20.028 10.14 19.996 10.02 19.932 9.932C19.868 9.844 19.768 9.8 19.632 9.8C19.568 9.8 19.468 9.82 19.332 9.86C19.316 9.868 19.3 9.876 19.284 9.884C19.268 9.884 19.252 9.884 19.236 9.884C19.188 9.884 19.152 9.868 19.128 9.836C19.112 9.796 19.12 9.752 19.152 9.704C19.264 9.608 19.376 9.512 19.488 9.416C19.6 9.312 19.716 9.204 19.836 9.092C19.948 8.98 20.064 8.868 20.184 8.756C20.312 8.644 20.44 8.528 20.568 8.408C20.736 8.256 20.892 8.112 21.036 7.976C21.18 7.832 21.32 7.692 21.456 7.556C21.48 7.532 21.5 7.512 21.516 7.496C21.444 7.496 21.36 7.492 21.264 7.484C21.168 7.476 21.076 7.472 20.988 7.472C20.62 7.472 20.32 7.564 20.088 7.748C19.856 7.924 19.64 8.14 19.44 8.396C19.392 8.452 19.344 8.516 19.296 8.588C19.248 8.66 19.192 8.74 19.128 8.828C19.016 8.996 18.896 9.168 18.768 9.344C18.64 9.512 18.52 9.656 18.408 9.776C18.368 9.816 18.32 9.836 18.264 9.836C18.176 9.836 18.132 9.792 18.132 9.704C18.132 9.656 18.144 9.616 18.168 9.584C18.32 9.408 18.456 9.22 18.576 9.02C18.696 8.812 18.808 8.608 18.912 8.408C19.064 8.136 19.216 7.884 19.368 7.652C19.528 7.412 19.708 7.22 19.908 7.076C20.108 6.932 20.344 6.872 20.616 6.896C20.824 6.912 21.016 6.928 21.192 6.944C21.368 6.952 21.532 6.956 21.684 6.956C21.852 6.956 22.004 6.952 22.14 6.944C22.284 6.928 22.416 6.916 22.536 6.908L22.584 7.016L21.66 7.856C21.508 7.984 21.368 8.112 21.24 8.24C21.112 8.368 20.98 8.492 20.844 8.612C20.724 8.724 20.612 8.828 20.508 8.924C20.404 9.012 20.308 9.096 20.22 9.176L19.896 9.476C20.2 9.46 20.436 9.524 20.604 9.668C20.772 9.812 20.856 10.024 20.856 10.304C20.856 10.4 20.844 10.504 20.82 10.616L21.024 10.484C21.24 10.348 21.444 10.196 21.636 10.028C21.828 9.86 21.968 9.724 22.056 9.62C22.144 9.532 22.224 9.448 22.296 9.368C22.368 9.28 22.436 9.196 22.5 9.116C22.524 9.076 22.556 9.056 22.596 9.056C22.692 9.056 22.74 9.112 22.74 9.224C22.74 9.272 22.716 9.32 22.668 9.368C22.58 9.48 22.492 9.588 22.404 9.692C22.324 9.796 22.236 9.9 22.14 10.004C22.092 10.068 21.972 10.184 21.78 10.352C21.596 10.512 21.396 10.664 21.18 10.808C21.012 10.92 20.852 11.016 20.7 11.096C20.452 11.872 20.108 12.544 19.668 13.112C19.132 13.808 18.552 14.348 17.928 14.732C17.304 15.124 16.684 15.324 16.068 15.332ZM16.068 14.936C16.396 14.936 16.744 14.824 17.112 14.6C17.472 14.376 17.824 14.088 18.168 13.736C18.52 13.384 18.824 13.024 19.08 12.656C19.2 12.48 19.308 12.304 19.404 12.128C19.508 11.952 19.6 11.776 19.68 11.6L18.504 12.104C18.28 12.2 18.072 12.292 17.88 12.38C17.68 12.476 17.492 12.576 17.316 12.68C17.1 12.808 16.864 12.972 16.608 13.172C16.352 13.372 16.132 13.592 15.948 13.832C15.764 14.072 15.672 14.324 15.672 14.588C15.672 14.684 15.708 14.764 15.78 14.828C15.852 14.9 15.948 14.936 16.068 14.936ZM23.0186 12.032C22.3946 12.032 22.0826 11.676 22.0826 10.964C22.0826 10.756 22.1106 10.516 22.1666 10.244C22.2306 9.972 22.3146 9.676 22.4186 9.356C22.5226 9.076 22.6546 8.756 22.8146 8.396C22.9826 8.028 23.1546 7.672 23.3306 7.328C22.8906 7.472 22.5186 7.544 22.2146 7.544C22.0946 7.544 21.9986 7.532 21.9266 7.508C21.7746 7.476 21.6986 7.42 21.6986 7.34C21.6986 7.3 21.7266 7.268 21.7826 7.244C21.8306 7.22 21.9026 7.216 21.9986 7.232C22.0306 7.24 22.0586 7.244 22.0826 7.244C22.1146 7.244 22.1466 7.244 22.1786 7.244C22.5546 7.244 23.0066 7.132 23.5346 6.908C24.4786 5.22 25.5226 3.844 26.6666 2.78C26.8746 2.572 27.1146 2.408 27.3866 2.288C27.6666 2.168 27.9266 2.108 28.1666 2.108C28.3746 2.108 28.5466 2.168 28.6826 2.288C28.8266 2.4 28.8986 2.584 28.8986 2.84C28.8986 3.032 28.8506 3.236 28.7546 3.452C28.5226 3.948 28.0946 4.46 27.4706 4.988C27.3186 5.116 27.1626 5.244 27.0026 5.372C26.8426 5.492 26.6786 5.608 26.5106 5.72C25.8306 6.192 25.1306 6.588 24.4106 6.908C24.2666 7.164 24.1226 7.44 23.9786 7.736C23.8346 8.032 23.6946 8.344 23.5586 8.672C23.5026 8.8 23.4466 8.936 23.3906 9.08C23.3346 9.224 23.2826 9.364 23.2346 9.5L23.0306 10.004C22.9586 10.18 22.8946 10.372 22.8386 10.58C22.7826 10.788 22.7546 10.98 22.7546 11.156C22.7546 11.308 22.7786 11.432 22.8266 11.528C22.8826 11.624 22.9706 11.672 23.0906 11.672C23.2746 11.672 23.4626 11.552 23.6546 11.312C23.8546 11.08 24.0306 10.832 24.1826 10.568C24.2866 10.384 24.3826 10.188 24.4706 9.98C24.5666 9.764 24.6426 9.56 24.6986 9.368C24.7626 9.168 24.7986 9.012 24.8066 8.9L24.8186 8.78C24.6026 8.692 24.4946 8.496 24.4946 8.192C24.4946 7.984 24.5346 7.808 24.6146 7.664C24.7026 7.52 24.8066 7.448 24.9266 7.448C25.1826 7.448 25.3106 7.68 25.3106 8.144C25.3106 8.224 25.3066 8.316 25.2986 8.42C25.2906 8.516 25.2786 8.62 25.2626 8.732C25.3186 8.748 25.3946 8.764 25.4906 8.78C25.5946 8.796 25.6826 8.804 25.7546 8.804C26.0266 8.804 26.2546 8.72 26.4386 8.552C26.6306 8.384 26.8146 8.184 26.9906 7.952C27.0226 7.912 27.0586 7.892 27.0986 7.892C27.1386 7.892 27.1706 7.912 27.1946 7.952C27.2186 7.992 27.2306 8.04 27.2306 8.096C27.2306 8.144 27.2186 8.192 27.1946 8.24C26.7786 8.856 26.3026 9.164 25.7666 9.164C25.6066 9.164 25.4226 9.132 25.2146 9.068L25.1546 9.272C25.1466 9.312 25.1346 9.352 25.1186 9.392C25.1106 9.424 25.1026 9.456 25.0946 9.488C25.0226 9.68 24.9146 9.92 24.7706 10.208C24.6346 10.488 24.4746 10.768 24.2906 11.048C24.1066 11.328 23.9066 11.56 23.6906 11.744C23.4746 11.936 23.2506 12.032 23.0186 12.032ZM27.6746 2.72C27.5066 2.816 27.2906 3 27.0266 3.272C26.7626 3.536 26.4826 3.852 26.1866 4.22C25.8906 4.588 25.5986 4.968 25.3106 5.36C25.0306 5.744 24.7866 6.108 24.5786 6.452C25.1066 6.172 25.6266 5.868 26.1386 5.54C26.6586 5.204 27.1186 4.836 27.5186 4.436C27.9266 4.036 28.2346 3.588 28.4426 3.092C28.4906 2.98 28.5146 2.884 28.5146 2.804C28.5146 2.62 28.4186 2.528 28.2266 2.528C28.0666 2.528 27.8826 2.592 27.6746 2.72ZM28.6428 11.108C28.4828 11.108 28.3508 11.048 28.2468 10.928C28.1508 10.808 28.1028 10.64 28.1028 10.424C28.1028 10.272 28.1268 10.108 28.1748 9.932C28.1908 9.868 28.2308 9.76 28.2948 9.608C28.3668 9.448 28.4388 9.288 28.5108 9.128C28.5348 9.088 28.5548 9.048 28.5708 9.008C28.3388 9.312 28.0828 9.584 27.8028 9.824C27.5228 10.056 27.2268 10.172 26.9148 10.172C26.6428 10.164 26.4508 10.092 26.3388 9.956C26.2268 9.812 26.1708 9.64 26.1708 9.44C26.1708 9.216 26.2188 8.972 26.3148 8.708C26.4188 8.444 26.5308 8.212 26.6508 8.012C26.8588 7.684 27.1108 7.364 27.4068 7.052C27.7108 6.732 28.0348 6.468 28.3788 6.26C28.7228 6.052 29.0508 5.948 29.3628 5.948C29.7148 5.948 30.0348 6.064 30.3228 6.296C30.3948 6.352 30.4428 6.412 30.4668 6.476C30.4988 6.54 30.5148 6.596 30.5148 6.644C30.5148 6.716 30.4948 6.776 30.4548 6.824C30.4148 6.872 30.3668 6.896 30.3108 6.896C30.2228 6.896 30.1548 6.832 30.1068 6.704C30.0588 6.568 29.9948 6.472 29.9148 6.416C29.8348 6.36 29.7468 6.332 29.6508 6.332C29.4588 6.332 29.2388 6.42 28.9908 6.596C28.7428 6.772 28.4988 6.988 28.2588 7.244C27.9788 7.524 27.7308 7.832 27.5148 8.168C27.3068 8.496 27.1468 8.796 27.0348 9.068C26.9308 9.3 26.8788 9.476 26.8788 9.596C26.8788 9.708 26.9228 9.764 27.0108 9.764C27.1308 9.764 27.3148 9.664 27.5628 9.464C27.7388 9.328 27.9268 9.152 28.1268 8.936C28.3348 8.72 28.5308 8.504 28.7148 8.288C28.8988 8.072 29.0428 7.904 29.1468 7.784C29.1868 7.72 29.2228 7.66 29.2548 7.604C29.2948 7.548 29.3308 7.5 29.3628 7.46C29.4508 7.34 29.5868 7.28 29.7708 7.28C29.8908 7.28 29.9908 7.308 30.0708 7.364C30.1588 7.42 30.1828 7.496 30.1428 7.592C30.1188 7.632 30.0868 7.692 30.0468 7.772C30.0068 7.844 29.9588 7.936 29.9028 8.048C29.7988 8.24 29.6828 8.464 29.5548 8.72C29.4268 8.976 29.3068 9.216 29.1948 9.44C29.0828 9.664 28.9988 9.84 28.9428 9.968C28.8228 10.208 28.7628 10.38 28.7628 10.484C28.7628 10.556 28.7908 10.592 28.8468 10.592C28.8708 10.592 28.8988 10.584 28.9308 10.568C28.9708 10.552 29.0148 10.532 29.0628 10.508C29.2068 10.428 29.3628 10.316 29.5308 10.172C29.6988 10.028 29.8788 9.844 30.0708 9.62C30.1588 9.532 30.2388 9.448 30.3108 9.368C30.3828 9.28 30.4508 9.196 30.5148 9.116C30.5388 9.076 30.5708 9.056 30.6108 9.056C30.7068 9.056 30.7548 9.112 30.7548 9.224C30.7548 9.28 30.7348 9.328 30.6948 9.368C30.6068 9.48 30.5188 9.588 30.4308 9.692C30.3428 9.796 30.2508 9.9 30.1548 10.004C30.0668 10.108 29.9748 10.212 29.8788 10.316C29.7908 10.42 29.6948 10.516 29.5908 10.604C29.4148 10.78 29.2428 10.908 29.0748 10.988C28.9148 11.068 28.7708 11.108 28.6428 11.108ZM32.0294 12.692C31.5814 12.692 31.3574 12.432 31.3574 11.912C31.3574 11.648 31.4254 11.352 31.5614 11.024C31.6974 10.704 31.8574 10.384 32.0414 10.064C32.2334 9.744 32.4054 9.46 32.5574 9.212C32.5894 9.164 32.6454 9.076 32.7254 8.948C32.8054 8.812 32.8934 8.664 32.9894 8.504C33.0934 8.336 33.1894 8.176 33.2774 8.024C33.3654 7.872 33.4334 7.756 33.4814 7.676C33.5934 7.452 33.6494 7.304 33.6494 7.232C33.6494 7.152 33.5894 7.148 33.4694 7.22C33.3574 7.292 33.1734 7.436 32.9174 7.652C32.7734 7.788 32.5934 7.968 32.3774 8.192C32.1614 8.408 31.9374 8.652 31.7054 8.924C31.4814 9.188 31.2654 9.464 31.0574 9.752C30.8574 10.032 30.6974 10.304 30.5774 10.568C30.5294 10.672 30.4654 10.752 30.3854 10.808C30.3134 10.856 30.2414 10.88 30.1694 10.88C30.0974 10.88 30.0374 10.856 29.9894 10.808C29.9334 10.76 29.9054 10.692 29.9054 10.604C29.9054 10.54 29.9214 10.476 29.9534 10.412C30.0334 10.196 30.1454 9.916 30.2894 9.572C30.4334 9.22 30.5894 8.848 30.7574 8.456C30.9254 8.056 31.0934 7.668 31.2614 7.292C31.4294 6.908 31.5774 6.58 31.7054 6.308C31.5534 6.356 31.4174 6.392 31.2974 6.416C31.1854 6.432 31.0854 6.44 30.9974 6.44C30.9254 6.44 30.8774 6.436 30.8534 6.428C30.7254 6.396 30.6614 6.352 30.6614 6.296C30.6614 6.248 30.7374 6.212 30.8894 6.188C31.1214 6.188 31.4454 6.112 31.8614 5.96C31.9254 5.824 31.9934 5.68 32.0654 5.528C32.1454 5.368 32.2294 5.204 32.3174 5.036C32.4934 4.684 32.6934 4.328 32.9174 3.968C33.1414 3.6 33.3854 3.244 33.6494 2.9C33.7854 2.732 33.9254 2.572 34.0694 2.42C34.2134 2.26 34.3654 2.112 34.5254 1.976C35.2374 1.376 35.9534 1.076 36.6734 1.076C36.9054 1.076 37.0854 1.148 37.2134 1.292C37.3414 1.436 37.4054 1.636 37.4054 1.892C37.4054 2.132 37.3294 2.38 37.1774 2.636C37.0494 2.876 36.8614 3.124 36.6134 3.38C36.3734 3.628 36.0774 3.888 35.7254 4.16C35.5574 4.288 35.3894 4.412 35.2214 4.532C35.0534 4.644 34.8814 4.756 34.7054 4.868C34.3534 5.092 33.9934 5.3 33.6254 5.492C33.2654 5.684 32.9214 5.848 32.5934 5.984C32.1214 6.936 31.6934 7.88 31.3094 8.816C31.4454 8.648 31.6094 8.464 31.8014 8.264C31.9934 8.056 32.1654 7.876 32.3174 7.724C32.4774 7.564 32.6574 7.404 32.8574 7.244C33.0654 7.076 33.2734 6.936 33.4814 6.824C33.6894 6.712 33.8694 6.656 34.0214 6.656C34.2054 6.656 34.3334 6.696 34.4054 6.776C34.4854 6.848 34.5254 6.944 34.5254 7.064C34.5254 7.24 34.4694 7.448 34.3574 7.688C34.2454 7.92 34.1334 8.128 34.0214 8.312C33.9654 8.416 33.8614 8.584 33.7094 8.816C33.5654 9.048 33.4214 9.276 33.2774 9.5C33.2054 9.604 33.1374 9.704 33.0734 9.8C33.0174 9.888 32.9694 9.968 32.9294 10.04C32.6734 10.44 32.4654 10.788 32.3054 11.084C32.1454 11.388 32.0574 11.604 32.0414 11.732C32.0334 11.78 32.0254 11.82 32.0174 11.852C32.0174 11.892 32.0174 11.928 32.0174 11.96C32.0174 12.104 32.0694 12.176 32.1734 12.176C32.2294 12.176 32.2934 12.164 32.3654 12.14C32.4454 12.116 32.5574 12.044 32.7014 11.924C32.8454 11.804 32.9974 11.66 33.1574 11.492C33.3174 11.332 33.4654 11.176 33.6014 11.024C33.7454 10.872 33.8534 10.752 33.9254 10.664L34.8134 9.632C34.8534 9.576 34.8934 9.528 34.9334 9.488C34.9814 9.448 35.0254 9.404 35.0654 9.356C35.1054 9.308 35.1414 9.264 35.1734 9.224C35.2134 9.176 35.2534 9.128 35.2934 9.08C35.3254 9.04 35.3654 9.02 35.4134 9.02C35.5014 9.02 35.5454 9.068 35.5454 9.164C35.5454 9.212 35.5214 9.268 35.4734 9.332C35.3854 9.444 35.2894 9.56 35.1854 9.68C35.0894 9.8 34.9974 9.912 34.9094 10.016C34.8774 10.056 34.8334 10.108 34.7774 10.172C34.7294 10.236 34.6734 10.312 34.6094 10.4C34.4814 10.552 34.3414 10.728 34.1894 10.928C34.0374 11.12 33.8934 11.292 33.7574 11.444C33.5974 11.62 33.4134 11.804 33.2054 11.996C33.0054 12.196 32.8014 12.36 32.5934 12.488C32.3854 12.624 32.1974 12.692 32.0294 12.692ZM32.8214 5.54C33.0774 5.42 33.3454 5.28 33.6254 5.12C34.2974 4.744 34.9214 4.328 35.4974 3.872C35.6414 3.752 35.7734 3.636 35.8934 3.524C36.0214 3.404 36.1374 3.288 36.2414 3.176C36.6974 2.688 36.9254 2.244 36.9254 1.844C36.9254 1.78 36.9134 1.72 36.8894 1.664C36.8654 1.608 36.7854 1.58 36.6494 1.58C36.4094 1.58 36.1614 1.648 35.9054 1.784C35.6574 1.912 35.4134 2.08 35.1734 2.288C34.9414 2.496 34.7214 2.716 34.5134 2.948C34.3054 3.18 34.1254 3.4 33.9734 3.608C33.7974 3.856 33.6094 4.144 33.4094 4.472C33.2174 4.8 33.0214 5.156 32.8214 5.54Z" fill="#FF6B00"/>
</svg>
